/* XPM */
static const char * const _default_instrument_xpm[] = {
"48 48 184 2",
"  	c #969696",
". 	c #A2A2A2",
"+ 	c #B9B9B9",
"@ 	c #C8C8C8",
"# 	c #D2D2D2",
"$ 	c #D8D8D8",
"% 	c #DBDBDB",
"& 	c #989898",
"* 	c #B8B8B8",
"= 	c #D3D3D3",
"- 	c #DEDEDE",
"; 	c #DCDCDC",
"> 	c #B7B7B7",
", 	c #D9D9D9",
"' 	c #A1A1A1",
") 	c #D0D0D0",
"! 	c #DDDDDD",
"~ 	c #ACACAC",
"{ 	c #AFAFAF",
"] 	c #ABABAB",
"^ 	c #A0A0A0",
"/ 	c #CECECE",
"( 	c #DBD9DA",
"_ 	c #CDC7D1",
": 	c #CBC8D3",
"< 	c #DADADB",
"[ 	c #B4B4B4",
"} 	c #DAD1D4",
"| 	c #A96C90",
"1 	c #5E2C79",
"2 	c #422F83",
"3 	c #7A76A6",
"4 	c #D5D4D8",
"5 	c #D6D6D6",
"6 	c #CF91A0",
"7 	c #942A6C",
"8 	c #5C2A78",
"9 	c #3F2C82",
"0 	c #393188",
"a 	c #9B9BB7",
"b 	c #B5B5B5",
"c 	c #DCD3D4",
"d 	c #CA4167",
"e 	c #393088",
"f 	c #505296",
"g 	c #D6D7D9",
"h 	c #CFCFCF",
"i 	c #DEADB0",
"j 	c #C92F5C",
"k 	c #6B4880",
"l 	c #534789",
"m 	c #383A8E",
"n 	c #B2B5C6",
"o 	c #DCDBDB",
"p 	c #E17175",
"q 	c #C92E5C",
"r 	c #A094A6",
"s 	c #9592AB",
"t 	c #37398E",
"u 	c #727CAB",
"v 	c #DFC7C4",
"w 	c #E24349",
"x 	c #93296B",
"y 	c #C8C4C9",
"z 	c #C4C3CA",
"A 	c #393087",
"B 	c #324D9A",
"C 	c #C6CAD3",
"D 	c #C3C3C3",
"E 	c #E49C91",
"F 	c #E13F46",
"G 	c #A06080",
"H 	c #646095",
"I 	c #2E4898",
"J 	c #91A0C0",
"K 	c #CDCDCD",
"L 	c #DDD7D5",
"M 	c #E86943",
"N 	c #BEA3AE",
"O 	c #A4A3B7",
"P 	c #3E6EAE",
"Q 	c #D5D7DA",
"R 	c #E2BBAD",
"S 	c #E85B2B",
"T 	c #C7325C",
"U 	c #D4CED0",
"V 	c #CECDD2",
"W 	c #3A3C8E",
"X 	c #1F60A9",
"Y 	c #ACBBCE",
"Z 	c #D5D5D5",
"` 	c #E69367",
" .	c #E85A2B",
"..	c #CC7887",
"+.	c #797AA4",
"@.	c #1E60A8",
"#.	c #6393BE",
"$.	c #DBDCDC",
"%.	c #DFCFC5",
"&.	c #E87818",
"*.	c #D4B1B6",
"=.	c #B1B1C1",
"-.	c #157AB5",
";.	c #C2CDD5",
">.	c #E5B28F",
",.	c #E77512",
"'.	c #E14F54",
").	c #DCD6D7",
"!.	c #D6D6D8",
"~.	c #40559C",
"{.	c #0F77B4",
"].	c #89AEC4",
"^.	c #C7C7C7",
"/.	c #DDD9D6",
"(.	c #EA9438",
"_.	c #E19191",
":.	c #8A92B4",
"<.	c #2D90B2",
"[.	c #D3D7D8",
"}.	c #BBBCBC",
"|.	c #E3C7AF",
"1.	c #EA8C06",
"2.	c #E75A2A",
"3.	c #DEC1C0",
"4.	c #BDC1CD",
"5.	c #1E5FA8",
"6.	c #0788AD",
"7.	c #A7C2C5",
"8.	c #AAAAAA",
"9.	c #E9AF6B",
"0.	c #EA8B05",
"a.	c #E37154",
"b.	c #DCDADA",
"c.	c #4D74AE",
"d.	c #0688AD",
"e.	c #5AA4A7",
"f.	c #DBDCDB",
"g.	c #9A9A9A",
"h.	c #DFD4C8",
"i.	c #EC9E12",
"j.	c #DEA79C",
"k.	c #99A7C2",
"l.	c #099596",
"m.	c #C0CFCB",
"n.	c #E3C39F",
"o.	c #EB9C04",
"p.	c #E67514",
"q.	c #DBCCC9",
"r.	c #C7CCD3",
"s.	c #1177B3",
"t.	c #039394",
"u.	c #95BBB0",
"v.	c #A6A6A6",
"w.	c #D5BBA0",
"x.	c #EB9B04",
"y.	c #DC9068",
"z.	c #658FB7",
"A.	c #97B3AB",
"B.	c #D8D8D7",
"C.	c #C6A78D",
"D.	c #C9926A",
"E.	c #CEC1BC",
"F.	c #BEC3C8",
"G.	c #6C91A4",
"H.	c #89A3A4",
"I.	c #D5D6D6",
"J.	c #A3A3A3",
"K.	c #BABABA",
"L.	c #979797",
"M.	c #C9C9C9",
"N.	c #9B9B9B",
"O.	c #CFD0D0",
"P.	c #9C9C9C",
"Q.	c #999999",
"R.	c #C7C8C8",
"S.	c #959595",
"T.	c #C0C0C0",
"U.	c #DADADA",
"V.	c #9A9B9B",
"W.	c #939393",
"X.	c #AAABAB",
"Y.	c #B6B6B6",
"Z.	c #BEBEBE",
"`.	c #C2C3C3",
"                                                                                                ",
"                                                                                                ",
"                                                                                                ",
"                                                                                                ",
"                                                                                                ",
"                                    . + @ # $ % % $ # @ + .                                     ",
"                              & * = - ; ; ; ; ; ; ; ; ; ; - = * &                               ",
"                            > , ; ; ; ; ; ; ; ; ; ; ; ; ; ; ; ; , >                             ",
"                        ' ) ! ; ; ; ; ; ; ; ; ; ; ; ; ; ; ; ; ; ; ! ) '                         ",
"                      ~ , ; ; ; ; ; ; ; ; ; ; ; ; ; ; ; ; ; ; ; ; ; ; , ~                       ",
"                    { ; ; ; ; ; ; ; ; ; ; ; ; ; ; ; ; ; ; ; ; ; ; ; ; ; ; {                     ",
"                  ] ; ; ; ; ; ; ; ; ; ; ; ; ; ; ; ; ; ; ; ; ; ; ; ; ; ; ; ; ]                   ",
"                ^ , ; ; ; ; ; ; ; ; ; ; ; ; ; ; ; ; ; ; ; ; ; ; ; ; ; ; ; ; , ^                 ",
"                / ; ; ; ; ; ; ; ; ; ; ; ; ; ( _ : < ; ; ; ; ; ; ; ; ; ; ; ; ; /                 ",
"              [ ! ; ; ; ; ; ; ; ; ; ; ; ; } | 1 2 3 4 ; ; ; ; ; ; ; ; ; ; ; ; ! [               ",
"            & 5 ; ; ; ; ; ; ; ; ; ; ; ; ; 6 7 8 9 0 a ; ; ; ; ; ; ; ; ; ; ; ; ; 5 &             ",
"            b ; ; ; ; ; ; ; ; ; ; ; ; ; c d 7 8 9 e f g ; ; ; ; ; ; ; ; ; ; ; ; ; b             ",
"            h ; ; ; ; ; ; ; ; ; ; ; ; ; i j 7 k l e m n ; ; ; ; ; ; ; ; ; ; ; ; ; h             ",
"          ^ ; ; ; ; ; ; ; ; ; ; ; ; ; o p q 7 r s e t u ; ; ; ; ; ; ; ; ; ; ; ; ; ; ^           ",
"          [ ; ; ; ; ; ; ; ; ; ; ; ; ; v w q x y z A t B C ; ; ; ; ; ; ; ; ; ; ; ; ; [           ",
"          D ; ; ; ; ; ; ; ; ; ; ; ; ; E F q G % % H t I J ; ; ; ; ; ; ; ; ; ; ; ; ; D           ",
"          K ; ; ; ; ; ; ; ; ; ; ; ; L M F q N ; ; O t I P Q ; ; ; ; ; ; ; ; ; ; ; ; K           ",
"          = ; ; ; ; ; ; ; ; ; ; ; ; R S F T U ; ; V W I X Y ; ; ; ; ; ; ; ; ; ; ; ; =           ",
"          Z ; ; ; ; ; ; ; ; ; ; ; ; `  .F ..; ; ; ; +.I @.#.$.; ; ; ; ; ; ; ; ; ; ; Z           ",
"          = ; ; ; ; ; ; ; ; ; ; ; %.&. .F *.; ; ; ; =.I @.-.;.; ; ; ; ; ; ; ; ; ; ; =           ",
"          ) ; ; ; ; ; ; ; ; ; ; ; >.,. .'.).; ; ; ; !.~.@.{.].; ; ; ; ; ; ; ; ; ; ; )           ",
"          ^.; ; ; ; ; ; ; ; ; ; /.(.,. ._.; ; ; ; ; ; :.@.{.<.[.; ; ; ; ; ; ; ; ; ; ^.          ",
"          }.; ; ; ; ; ; ; ; ; ; |.1.,.2.3.; ; ; ; ; ; 4.5.{.6.7.; ; ; ; ; ; ; ; ; ; }.          ",
"          8.; ; ; ; ; ; ; ; ; ; 9.0.,.a.b.; ; ; ; ; ; < c.{.d.e.f.; ; ; ; ; ; ; ; ; 8.          ",
"          g.5 ; ; ; ; ; ; ; ; h.i.0.,.j.; ; ; ; ; ; ; ; k.{.d.l.m.; ; ; ; ; ; ; ; 5 g.          ",
"            D ; ; ; ; ; ; ; ; n.o.0.p.q.; ; ; ; ; ; ; ; r.s.d.t.u.; ; ; ; ; ; ; ; D             ",
"            v.% ; ; ; ; ; ; ; w.x.0.y.; ; ; ; ; ; ; ; ; ; z.d.t.A.; ; ; ; ; ; ; % v.            ",
"              @ ; ; ; ; ; ; ; B.C.D.E.; ; ; ; ; ; ; ; ; ; F.G.H.I.; ; ; ; ; ; ; @               ",
"              J., ; ; ; ; ; ; ; ; ; ; ; ; ; ; ; ; ; ; ; ; ; ; ; ; ; ; ; ; ; ; , J.              ",
"                K.; ; ; ; ; ; ; ; ; ; ; ; ; ; ; ; ; ; ; ; ; ; ; ; ; ; ; ; ; ; K.                ",
"                L.M.; ; ; ; ; ; ; ; ; ; ; ; ; ; ; ; ; ; ; ; ; ; ; ; ; ; ; ; M.L.                ",
"                  N.O.; ; ; ; ; ; ; ; ; ; ; ; ; ; ; ; ; ; ; ; ; ; ; ; ; ; O.N.                  ",
"                    P.h ; ; ; ; ; ; ; ; ; ; ; ; ; ; ; ; ; ; ; ; ; ; ; ; h P.                    ",
"                      Q.R.; ; ; ; ; ; ; ; ; ; ; ; ; ; ; ; ; ; ; ; ; ; R.Q.                      ",
"                        S.[ $ ; ; ; ; ; ; ; ; ; ; ; ; ; ; ; ; ; ; $ [ S.                        ",
"                            P.T.U.; ; ; ; ; ; ; ; ; ; ; ; ; ; U.T.P.                            ",
"                              S.V.* h % ; ; ; ; ; ; ; ; % h * V.S.                              ",
"                                    W.g.X.Y.Z.D `.Z.Y.X.g.W.                                    ",
"                                                                                                ",
"                                                                                                ",
"                                                                                                ",
"                                                                                                ",
"                                                                                                "};
