/* XPM */ 
static const char * const AudacityLogo48x48_xpm[] = {
"48 48 257 2",
"  	c None",
"! 	c black",
"# 	c #0F3C46",
"$ 	c #0F3E48",
"% 	c #103E49",
"& 	c #103F49",
"' 	c #10404B",
"( 	c #10424D",
") 	c #10434D",
"* 	c #114550",
"+ 	c #0E3740",
", 	c #0E3841",
"- 	c #0E3942",
". 	c #0E3A43",
"0 	c #0F3B44",
"1 	c #0F3D47",
"2 	c #103E48",
"3 	c #10424C",
"4 	c #11434D",
"5 	c #11444F",
"6 	c #114551",
"7 	c #124652",
"8 	c #0D343C",
"9 	c #0D353D",
": 	c #0D353E",
"; 	c #0D363F",
"< 	c #0E373F",
"= 	c #0F3A44",
"> 	c #0F3C45",
"? 	c #0F3D46",
"@ 	c #10414C",
"A 	c #124752",
"B 	c #0C3139",
"C 	c #0C323A",
"D 	c #0D333B",
"E 	c #0D333C",
"F 	c #0D343D",
"G 	c #0F3B45",
"H 	c #0F3E47",
"I 	c #0F3F49",
"J 	c #10404A",
"K 	c #11434E",
"L 	c #114651",
"M 	c #124753",
"N 	c #0C2E36",
"O 	c #0C2F37",
"P 	c #0C3037",
"Q 	c #0C3038",
"R 	c #0C333B",
"S 	c #0B2D34",
"T 	c #0B2E35",
"U 	c #0B2E36",
"V 	c #0C2F36",
"W 	c #0E363F",
"X 	c #0E3B44",
"Y 	c #0B2A31",
"Z 	c #0B2B31",
"[ 	c #0A2B32",
"] 	c #0B2B32",
"^ 	c #0B2C32",
"_ 	c #0B2C33",
"` 	c #0B2F36",
"a 	c #0A2930",
"b 	c #081F24",
"c 	c #06181C",
"d 	c #030E10",
"e 	c #030C0E",
"f 	c #010709",
"g 	c #020A0C",
"h 	c #041013",
"i 	c #071D22",
"j 	c #0A292F",
"k 	c #0B2A30",
"l 	c #0A2A31",
"m 	c #09262C",
"n 	c #05161A",
"o 	c #010506",
"p 	c #010405",
"q 	c #10414B",
"r 	c #0A272E",
"s 	c #0A272D",
"t 	c #0A282E",
"u 	c #0A2A30",
"v 	c #082025",
"w 	c #030C0D",
"x 	c #10434E",
"y 	c #09252B",
"z 	c #0A262C",
"{ 	c #082126",
"| 	c #09252C",
"} 	c #092429",
"~ 	c #092329",
" !	c #09242A",
"!!	c #092328",
"#!	c #041215",
"$!	c #000101",
"%!	c #0C323B",
"&!	c #082228",
"'!	c #082227",
"(!	c #082127",
")!	c #071C20",
"*!	c #010607",
"+!	c #0D3741",
",!	c #051417",
"-!	c #11424D",
".!	c #081F23",
"0!	c #071E23",
"1!	c #071E22",
"2!	c #041012",
"3!	c #081E23",
"4!	c #071D21",
"5!	c #071C21",
"6!	c #071B20",
"7!	c #071B1F",
"8!	c #0B2C34",
"9!	c #071A1F",
":!	c #061A1E",
";!	c #06191D",
"<!	c #030D0F",
"=!	c #082024",
">!	c #06181B",
"?!	c #06171B",
"@!	c #051619",
"A!	c #44E7DE",
"B!	c #0D363E",
"C!	c #08242A",
"D!	c #0E3842",
"E!	c #082026",
"F!	c #061A1F",
"G!	c #06171A",
"H!	c #051519",
"I!	c #051418",
"J!	c #43E7DF",
"K!	c #43E8DF",
"L!	c #0E3A44",
"M!	c #0A2C33",
"N!	c #071F23",
"O!	c #071A1E",
"P!	c #051518",
"Q!	c #051316",
"R!	c #25827E",
"S!	c #45E6DD",
"T!	c #45E6DF",
"U!	c #42E7E0",
"V!	c #42E8E0",
"W!	c #45E7DE",
"X!	c #0C3138",
"Y!	c #040F11",
"Z!	c #06161A",
"[!	c #051215",
"]!	c #041214",
"^!	c #0E3A3A",
"_!	c #3FEAE1",
"`!	c #46E6DE",
"a!	c #43E6DF",
"b!	c #41E8E1",
"c!	c #45E6DE",
"d!	c #041114",
"e!	c #051416",
"f!	c #39D0C4",
"g!	c #45E7DD",
"h!	c #43E8DE",
"i!	c #3DE9E4",
"j!	c #20F4FB",
"k!	c #072025",
"l!	c #040F12",
"m!	c #040E10",
"n!	c #040E11",
"o!	c #257E77",
"p!	c #49E4D7",
"q!	c #46E6D9",
"r!	c #42E8DF",
"s!	c #2EEFEF",
"t!	c #34DDE1",
"u!	c #0D323B",
"v!	c #164B47",
"w!	c #4CE3D6",
"x!	c #52DFD0",
"y!	c #49E4D4",
"z!	c #2C847D",
"{!	c #082A2D",
"|!	c #081F25",
"}!	c #092228",
"~!	c #000102",
" #	c #030B0D",
"!#	c #030B0C",
"##	c #0F312F",
"$#	c #56DDCC",
"%#	c #224B44",
"&#	c #041113",
"'#	c #061B20",
"(#	c #030A0C",
")#	c #020A0B",
"*#	c #02090A",
"+#	c #02080A",
",#	c #0A1918",
"-#	c #21433B",
".#	c #051317",
"0#	c #0A262D",
"1#	c #0B2D35",
"2#	c #02090B",
"3#	c #020809",
"4#	c #020708",
"5#	c #0A1512",
"6#	c #1D352F",
"7#	c #040C0D",
"8#	c #051315",
"9#	c #082328",
":#	c #000202",
";#	c #051216",
"<#	c #020607",
"=#	c #040A09",
">#	c #1F3528",
"?#	c #03090A",
"@#	c #09262D",
"A#	c #030D0E",
"B#	c #010304",
"C#	c #010707",
"D#	c #081B1B",
"E#	c #06191E",
"F#	c #010303",
"G#	c #051414",
"H#	c #030D10",
"I#	c #05171A",
"J#	c #000203",
"K#	c #011112",
"L#	c #010809",
"M#	c #010505",
"N#	c #010203",
"O#	c #022E31",
"P#	c #020709",
"Q#	c #020E0E",
"R#	c #064F51",
"S#	c #09272D",
"T#	c #031113",
"U#	c #041819",
"V#	c #031416",
"W#	c #042021",
"X#	c #09484A",
"Y#	c #0C686A",
"Z#	c #030F10",
"[#	c #123030",
"]#	c #084749",
"^#	c #045255",
"_#	c #0C3F3F",
"`#	c #0A6568",
"a#	c #2CE4E7",
"b#	c #050E0F",
"c#	c #020B0C",
"d#	c #368F8F",
"e#	c #1CD7DE",
"f#	c #030A0B",
"g#	c #071F24",
"h#	c #0A282F",
"i#	c #030F11",
"j#	c #05171B",
"k#	c #061B1F",
"                                                                                                ",
"                                                                                                ",
"                                                        # # $ % & ' ( ) *                       ",
"                                                + + , - . 0 # 1 2 & ' 3 4 5 6 7                 ",
"                                            8 9 : ; < , - . = > ? $ & ' @ 4 5 * A               ",
"                                        B C C D E F : ; + , - . G # H I J @ K 5 L M             ",
"                                    N O O P Q B C R E F : < + - . 0 # 1 & J 3 K 5 L M           ",
"                                  S S S T U V O Q B C R 8 9 W + , - X # 1 & ' 3 K * L A         ",
"                              Y Z [ ] ^ _ S S T ` O Q Q a b c d e f g h i S G ' ( K * L         ",
"                            j j j a a k l ] ^ _ S m n o ! ! ! ! !       ! ! p j q ( 5 6         ",
"                          r s s s r t t j a u v w ! ! !                         B @ x 5 x       ",
"                        y y y y y m m z s { e ! !                                 J 3 K *       ",
"                    | } } ~ ~ ~ } }  !!!#!$!!                                     & q 4 5 %!    ",
"                  &!&!&!'!'!(!'!'!'!)!*!!                                         & J 3 K +!    ",
"                &!(!{ v v v v v v ,!$!!                                           $ & q -!.     ",
"              '!v v b .!0!0!0!1!2!! !                                             ? $ J @ G     ",
"              v b 3!i i 4!5!5!2!!                                                 > 1 & q $     ",
"          { b 0!i 5!6!7!7!7!c $!                                                . X ? $ J 3 8!  ",
"      '!v 3!i 5!6!9!:!;!;!;!<!!                                                 , . > 1 & I 3   ",
"    (!=!3!4!)!7!:!;!c >!?!@!$!      A!A!                                      B!+ - G ? & C!D!  ",
"    E!3!4!)!F!;!c ?!G!@!H!I!$!    J!J!K!                                    E 9 < D!L!# $ M!R   ",
"    N!i )!O!;!>!G!@!P!,!,!Q!R!A!S!T!U!V!W!                                X!D F ; , . > 1 & Y!  ",
"    i )!9!;!>!Z!P!,!Q![!#!]!^!_!`!a!b!c!W!                              U Q C 8 B!+ - 0 # 5!!   ",
"    4!7!;!c Z!P!,!Q!d!d!h 2!e!f!g!h!b!A!i!j!                        Y _ T O B D 9 < - = k!!     ",
"    5!:!c G!P!,![!d!h l!Y!m!n!o!p!q!  r!s!t!P!n c ;!7!4!3!v         a ] S ` X!u!F ; , y !       ",
"    6!;!?!@!,![!d!2!Y!d <!e e v!w!x!  y!z!{!,!P!G!c :!)!1!|!(!}!    j Y _ N Q C 8 B!U ~!        ",
"    F!c n P!Q!d!2!n!<!e  #!#g ##$#    %#&#d!Q!,!@!>!;!'#i b { !! !  r l _ T P C E 9 d!!         ",
"    ;!?!@!,!#!h Y!<!e (#)#*#+#,#    -#m!n!h ]!.#P!G!;!7!5!3!v '! !m 0#a _ 1#P B D b !           ",
"    c G!P!Q!d!2!d e !#2#3#4#4#5#  6#7#w <!Y!&#8#I!Z!c :!)!0!v '!} 9#,!t ] S O B S :#            ",
"      Z!I!;#&#Y!<! #2#3#<#o o =#>#?#*# #e n!h #!,!@!c :!)!i b (!~ y m @#t S V B E!!             ",
"      n ,![!h d A#g +#4#o p B#C#D#4#+#g e d 2!#!,!@!?!E#6!i b { ~ y s 3#Z S ` Q Q!              ",
"      @!,!#!2!m!e (#3#<#p F#:#G#!#*!3#)# #H#2!d!.#H!?!;!6!i b { !!y s ?!b I#'!,!!               ",
"        ,!#!2!d e g 3#<#p J#$!K#L#<#3#)#w H#l!d!Q!H!?!;!6!i b { !!y s s @!! ! !                 ",
"        ,!#!h d e (#+#4#M#B#N#O#p *!3#)#w d l!]!.#H!?!;!7!i b { ~ y s j  #                      ",
"          #!h n!<! #*#P#<#M#Q#R#o 4#+#(#e d 2!#!,!@!>!E#6!i b { ~ y s S#!                       ",
"           #&#Y!<! #T#U#V#W#X#Y#Z#3#)# #<!Y!&#[!,!@!c :!)!1!v '!~ y s ~ !                       ",
"            ! F#! ! [#]#^#_#`#a#b#2#c#e d l!d!Q!P!Z!c O!5!0!v '!} m r ~                         ",
"                    d#e#        f# #e <!Y!h #!,!H!?!;!7!4!.!v }! !m t g#                        ",
"                                  e H#Y!h d!Q!P!Z!c O!)!i b { !!y @#h##!                        ",
"                                  (#Y!h d!;#,!@!?!;!9!5!0!v '!} y s  !~!                        ",
"                                    l!]!Q!,!H!G!c :!6!i b { }! !m r i#!                         ",
"                                      [!,!H!G!c ;!7!5!0!v (!~ y @#j#!                           ",
"                                      <#Q!G!c ;!7!5!1!b { &! !y H!!                             ",
"                                        :#n!c k#)!i b v '!~ 0! #!                               ",
"                                            M#h >!6!5!7!P!2#! !                                 ",
"                                              ! ! ! ! ! ! !                                     ",
"                                                                                                ",
"                                                                                                "};