/* XPM */ 
static const char * const audacity32_xpm[] = {
"32 32 186 2",
"  	c None",
"! 	c black",
"# 	c #0F3C46",
"$ 	c #103E48",
"% 	c #103F49",
"& 	c #10414B",
"' 	c #10424D",
"( 	c #0D363F",
") 	c #0E3841",
"* 	c #0E3942",
"+ 	c #0E3A44",
", 	c #0F3D47",
"- 	c #11434D",
". 	c #114550",
"0 	c #114652",
"1 	c #0C3139",
"2 	c #0C323A",
"3 	c #0D333B",
"4 	c #0D343C",
"5 	c #0D353E",
"6 	c #0D373F",
"7 	c #0E3A43",
"8 	c #0F3B45",
"9 	c #11434E",
": 	c #124752",
"; 	c #0B2E36",
"< 	c #0C2F36",
"= 	c #0C3037",
"> 	c #0C3138",
"? 	c #0D343D",
"@ 	c #0D363E",
"A 	c #0E3740",
"B 	c #0F3B44",
"C 	c #0B2B31",
"D 	c #0B2B32",
"E 	c #0B2C33",
"F 	c #0B2D34",
"G 	c #0B2E35",
"H 	c #0C2F37",
"I 	c #0C3038",
"J 	c #0A292F",
"K 	c #082227",
"L 	c #071E23",
"M 	c #061B20",
"N 	c #082126",
"O 	c #10414C",
"P 	c #114651",
"Q 	c #0A282E",
"R 	c #0A282F",
"S 	c #0A2930",
"T 	c #0A2A30",
"U 	c #092329",
"V 	c #041316",
"W 	c #010203",
"X 	c #010303",
"Y 	c #0A2A31",
"Z 	c #10424C",
"[ 	c #11444F",
"] 	c #09262C",
"^ 	c #0A262C",
"_ 	c #0A272D",
"` 	c #030B0D",
"a 	c #092328",
"b 	c #082228",
"c 	c #041114",
"d 	c #000001",
"e 	c #11444E",
"f 	c #0D353D",
"g 	c #082127",
"h 	c #082026",
"i 	c #082025",
"j 	c #071C20",
"k 	c #010607",
"l 	c #0F3E48",
"m 	c #10404A",
"n 	c #081F24",
"o 	c #071E22",
"p 	c #071D22",
"q 	c #06181C",
"r 	c #000202",
"s 	c #071C21",
"t 	c #071B1F",
"u 	c #061A1E",
"v 	c #081E23",
"w 	c #071D21",
"x 	c #071B20",
"y 	c #071A1E",
"z 	c #06191D",
"{ 	c #040F11",
"| 	c #0F3F49",
"} 	c #0F3C45",
"~ 	c #071A1F",
" !	c #06181B",
"!!	c #06171A",
"#!	c #051619",
"$!	c #02090B",
"%!	c #43E7DE",
"&!	c #43E7DF",
"'!	c #06171B",
"(!	c #051518",
")!	c #051417",
"*!	c #051316",
"+!	c #154C4B",
",!	c #43E8DF",
"-!	c #45E6DE",
".!	c #42E8E0",
"0!	c #44E7DE",
"1!	c #0F3D46",
"2!	c #06161A",
"3!	c #051418",
"4!	c #041013",
"5!	c #06181A",
"6!	c #3FDDD2",
"7!	c #43E8DE",
"8!	c #0B2C32",
"9!	c #010304",
":!	c #051215",
";!	c #030E10",
"<!	c #040E10",
"=!	c #298A82",
">!	c #4BE3D7",
"?!	c #4CE2D5",
"@!	c #3BE9E3",
"A!	c #17696C",
"B!	c #051519",
"C!	c #061A1F",
"D!	c #0B2A31",
"E!	c #041113",
"F!	c #040E11",
"G!	c #030D0F",
"H!	c #1D534D",
"I!	c #57BAA2",
"J!	c #0E2B2A",
"K!	c #041215",
"L!	c #071F23",
"M!	c #092429",
"N!	c #030C0E",
"O!	c #030A0C",
"P!	c #02090A",
"Q!	c #02080A",
"R!	c #182E28",
"S!	c #0E201E",
"T!	c #09242A",
"U!	c #020708",
"V!	c #010606",
"W!	c #0A1310",
"X!	c #0A1614",
"Y!	c #020A0B",
"Z!	c #082328",
"[!	c #0C2E36",
"]!	c #010708",
"^!	c #051315",
"_!	c #041012",
"`!	c #010505",
"a!	c #061515",
"b!	c #020607",
"c!	c #09252B",
"d!	c #0A272E",
"e!	c #040F12",
"f!	c #010404",
"g!	c #000101",
"h!	c #020F10",
"i!	c #010506",
"j!	c #020809",
"k!	c #092228",
"l!	c #030A0B",
"m!	c #010405",
"n!	c #022325",
"o!	c #020709",
"p!	c #041112",
"q!	c #021314",
"r!	c #062A2B",
"s!	c #073E40",
"t!	c #041214",
"u!	c #050D0D",
"v!	c #135D5F",
"w!	c #0A5D5F",
"x!	c #0F6A6C",
"y!	c #1F8A8B",
"z!	c #030C0D",
"{!	c #030D10",
"|!	c #081F25",
"}!	c #020A0C",
"~!	c #051317",
" #	c #05161A",
"!#	c #020608",
"                                                                ",
"                                      # $ % & '                 ",
"                                ( ) * + # , % & - . 0           ",
"                          1 2 3 4 5 6 ) 7 8 , % & 9 . :         ",
"                        ; < = > 2 3 ? @ A * B , % & 9 . :       ",
"                    C D E E F G H > I J K L M N E + O 9 P       ",
"                  Q R J S T C D U V W ! !         X Y Z [ [     ",
"                ] ] ] ] ^ _ N ` !                     , ' [     ",
"              U U a a U b c d                         % & e f   ",
"          b g N h i i j k !                           l m ' @   ",
"        U i n L o p q r                               # l & H   ",
"      N n o s j t u X                                 B , m *   ",
"    h v w x y z q {                                 A * # | }   ",
"  N L s ~ z  !!!#!$!  %!&!                        3 @ ) B l 1 '!",
"  v s y q !!(!)!*!+!,!-!.!0!                    H 2 f A 7 1!> ! ",
"  w t q 2!3!*!c 4!5!6!7!.!.!                  8!G 1 4 ( * > 9!  ",
"  s z !!3!:!4!{ ;!<!=!>!?!@!A!B!q C!w n       D!F I 3 @ 2 k     ",
"  C!q B!*!E!F!G!` ` H!  I!J!K!)!2!z j L!g M!  S F H 2 f K!      ",
"  z !!)!c { N!O!P!Q!R!  S!;!4!*!B!q t L h U T!R E < 2 g !       ",
"    #!*!4!;!` P!U!V!W!X!Y!N!{ K!(!'!y p i a Z!U D![!1 ]!        ",
"    B!^!_!G!Y!U!`!X a!b!P!` ;!c )!!!u w i a c!q d!; ]           ",
"    (!:!e!N!Y!U!f!g!h!i!j!` ;!c )!!!u w n k!c!c!*!U!g!          ",
"      :!_!G!l!U!m!9!n!k Q!` <!c )!'!u w i a c!R o!              ",
"      ;!4!G!N!p!q!r!s!o!Y!N!{ t!3!'!y p i a ] c!                ",
"        g!g!u!v!w!x!y!$!` ;!4!*!B!q t o h U ] T!                ",
"                      z!{!e!t!)!!!z j v g T!_ p                 ",
"                        e!c *!B!q C!w |!b c!_ }!                ",
"                        { ~!B!'!z j v N U ]  #!                 ",
"                          G!!!z x p i k!T!)!!                   ",
"                            !#^!u p s B!k !                     ",
"                                ! ! ! !                         ",
"                                                                "};