<?xml version="1.0" encoding="utf-8"?>
<!-- Generator: Adobe Illustrator 16.0.0, SVG Export Plug-In . SVG Version: 6.00 Build 0)  -->
<!DOCTYPE svg PUBLIC "-//W3C//DTD SVG 1.1//EN" "http://www.w3.org/Graphics/SVG/1.1/DTD/svg11.dtd">
<svg version="1.1" id="Layer_1" xmlns="http://www.w3.org/2000/svg" xmlns:xlink="http://www.w3.org/1999/xlink" x="0px" y="0px"
	 width="1580px" height="668px" viewBox="0 0 1580 668" enable-background="new 0 0 1580 668" xml:space="preserve">
<g>
	<path fill="#D53255" d="M654.37,118.4c4.78-1.65,10.54,1.77,11.37,6.75c0.5,3.93,0.18,7.9,0.24,11.85
		c0,71.69-0.01,143.38,0,215.069c0.51,5.091-3.79,10.081-8.98,9.921c-5.2,0.16-9.53-4.81-9.01-9.921
		c0-74.709,0.01-149.429-0.01-224.139C647.64,123.74,650.31,119.6,654.37,118.4z"/>
</g>
<g>
	<path fill="#353F90" d="M920.39,118.4c5.921-2.07,12.351,3.4,11.63,9.53c0.021,71.69-0.01,143.38,0.01,215.07
		c-0.049,3.95,0.25,7.931-0.26,11.86c-0.75,4.38-5.289,7.7-9.7,7.07c-4.85-0.301-8.52-5.12-8.04-9.861
		C914,277.36,914.02,202.64,914.02,127.93C913.64,123.73,916.33,119.61,920.39,118.4z"/>
</g>
<g>
	<linearGradient id="SVGID_1_" gradientUnits="userSpaceOnUse" x1="697.042" y1="236.5049" x2="883.0986" y2="236.5049">
		<stop  offset="0" style="stop-color:#ECA704"/>
		<stop  offset="0.1854" style="stop-color:#E87F09"/>
		<stop  offset="0.361" style="stop-color:#D63255"/>
		<stop  offset="0.5268" style="stop-color:#4A2A7D"/>
		<stop  offset="0.6927" style="stop-color:#343F91"/>
		<stop  offset="0.8439" style="stop-color:#0A7FB5"/>
		<stop  offset="1" style="stop-color:#019C7A"/>
	</linearGradient>
	<path fill="url(#SVGID_1_)" d="M770.79,139.75c7.87-6.83,19.48-7.48,29.11-4.63c9.789,3.28,15.66,12.6,19.279,21.74
		c19.801,49.65,40.4,98.98,60.33,148.58c2.74,7.34,5.74,16.16,1.4,23.49c-4.5,8.22-14.73,12.41-23.721,9.759
		c-5.17-1.459-9.1-5.68-11.39-10.399c-6.06-12.48-10.41-25.69-15.47-38.59c-7.03-17.66-12.93-35.73-19.58-53.53
		c-7.1-19.44-14.42-38.8-21.34-58.31c-0.71,1.14-1.43,2.28-1.94,3.51c-15.45,42.53-31.03,85.02-46.71,127.46
		c-3.14,7.84-5.34,16.12-9.47,23.52c-2.76,5.089-8.76,7.26-14.3,7.07c-8.08,0.2-15.72-5.19-18.84-12.53
		c-2.4-6.23-0.48-13.03,1.78-18.99c19.7-49.9,39.62-99.72,59.31-149.62C762.07,151.58,765.07,144.54,770.79,139.75z"/>
</g>
<g>
	<path fill="#E87710" d="M542.37,158.42c5.46-1.89,11.81,2.71,11.55,8.52c0.11,50.38,0.01,100.76,0.05,151.13
		c0.53,5.12-3.76,10.06-8.96,9.89c-5.23,0.21-9.51-4.77-9-9.89c-0.01-50.04,0.01-100.1-0.01-150.14
		C535.69,163.77,538.27,159.54,542.37,158.42z"/>
	<path fill="#E87710" d="M486.36,208.38c5.48-1.92,11.86,2.72,11.61,8.56c0.07,16.7,0.06,33.42,0,50.12
		c0.16,4.83-4.16,9.08-8.96,8.96c-4.81,0.14-9.15-4.12-8.98-8.96c-0.1-16.37,0-32.76-0.05-49.13
		C479.66,213.75,482.24,209.5,486.36,208.38z"/>
</g>
<g>
	<path fill="#0D7AB2" d="M1032.38,158.41c5.88-2.06,12.34,3.39,11.63,9.52c-0.04,50.37,0.061,100.76-0.05,151.13
		c0.22,5.8-6.12,10.43-11.59,8.55c-4.03-1.22-6.7-5.37-6.34-9.54c0-50.05,0-100.1,0-150.14
		C1025.67,163.75,1028.34,159.63,1032.38,158.41z"/>
	<path fill="#0D7AB2" d="M1088.359,208.39c4.541-1.56,9.94,1.39,11.221,5.97c0.52,2.16,0.42,4.42,0.47,6.64
		c-0.14,15.35,0.06,30.71-0.09,46.06c0.22,5.8-6.11,10.45-11.59,8.57c-4.07-1.18-6.73-5.38-6.39-9.56c0-16.05,0-32.1,0-48.14
		C1081.63,213.74,1084.3,209.59,1088.359,208.39z"/>
</g>
<g>
	<path fill="#E74C37" d="M598.37,178.4c6.39-2.21,12.77,4.14,11.65,10.55c-0.1,36.03,0.04,72.07-0.07,108.11
		c0.15,5.12-4.81,9.53-9.87,8.89c-4.84-0.38-8.51-5.11-8.08-9.87c-0.01-36.05,0.01-72.1-0.01-108.15
		C591.66,183.75,594.33,179.61,598.37,178.4z"/>
</g>
<g>
	<path fill="#2357A3" d="M976.37,178.4c3.6-1.18,7.729,0.29,9.949,3.33c1.851,2.31,1.661,5.45,1.75,8.24
		c-0.13,35.7,0.051,71.39-0.089,107.09c0.159,4.79-4.19,9.11-8.98,8.91c-5.2,0.2-9.53-4.8-8.96-9.9c0-36.05-0.011-72.09,0-108.14
		C969.66,183.74,972.319,179.62,976.37,178.4z"/>
</g>
<g>
	<path fill="#232323" d="M838.43,465.61c10.46-1.73,22.2-0.78,30.53,6.47c2.859,1.56,3.44,5.3,2.18,8.07
		c-2.09,2.83-6.61,3.08-9.34,1.02c-3.11-2.4-6.33-4.95-10.28-5.73c-6.93-1.67-14.3,0.95-19.5,5.61
		c-8.09,7.15-11.55,19.011-8.64,29.41c1.71,5.89,5.09,11.42,10.04,15.14c5.48,4.37,13.21,6.36,19.891,3.66
		c3.759-1.19,6.77-3.829,10.189-5.699c2.47-0.261,5.87-0.86,7.29,1.81c1.18,2.53,1.01,6.22-1.56,7.89
		c-9.891,7.93-24.03,9.28-35.791,5.19c-11.939-4.39-20.47-15.95-22.25-28.4c-1.34-8.79-0.47-18.17,3.721-26.119
		C819.52,474.76,828.33,467.689,838.43,465.61z"/>
	<path fill="#232323" d="M570.41,466.45c3.26-1.17,9.17-0.97,9.34,3.649c0.16,14.65-0.04,29.301,0.08,43.95
		c0.02,5.16,2.87,10.131,7.16,12.95c7.26,5.069,18,4.65,24.51-1.49c3.22-2.89,5.06-7.19,4.98-11.5c0.02-14.01,0-28.029-0.01-42.04
		c-0.09-2.159,0.55-4.859,2.81-5.67c3.41-0.939,8.91-0.689,9.14,3.92c0.24,13.261,0.01,26.521,0.11,39.78
		c0.16,5.89-0.11,12.12-3.23,17.311c-4.12,7.629-12.53,12.06-20.94,13c-8.31,0.879-17.24,0.199-24.55-4.19
		c-6.99-4.11-11.91-11.84-11.81-20.051c0-15.05-0.01-30.1,0-45.139C567.79,469.09,568.77,467.28,570.41,466.45z"/>
	<g>
		<path fill="#232323" d="M659.41,466.439c2.72-0.93,5.75-0.27,8.6-0.449c7.84,0.279,15.92-0.91,23.53,1.56
			c8.65,2.54,16.06,8.94,19.9,17.09c3.55,7.221,4.25,15.521,3.48,23.44c-0.81,10.01-5.91,19.87-14.34,25.54
			c-6.22,4.41-14.01,6.14-21.54,5.979c-5.66-0.06-11.32,0.021-16.97-0.01c-2.57,0.26-5.25-1.87-5.03-4.57
			c-0.1-21.359-0.01-42.72-0.04-64.089C656.79,469.09,657.77,467.28,659.41,466.439z M668.82,476.01
			c-0.02,17.79-0.02,35.58-0.01,53.38c4.39-0.02,8.79,0.18,13.18-0.06c8.81-1.11,16.58-7.57,19.55-15.899
			c4.85-12.221,0.67-28.341-11.44-34.611C683.64,474.97,675.95,476.14,668.82,476.01z"/>
	</g>
	<path fill="#232323" d="M900.41,466.439c3.26-1.159,9.17-0.959,9.34,3.66c0.109,21.62,0.061,43.25,0.029,64.87
		c0.24,6.461-11.869,6.44-11.739,0.061c-0.101-21.37-0.011-42.74-0.04-64.1C897.79,469.09,898.77,467.28,900.41,466.439z"/>
	<path fill="#232323" d="M941.41,466.45c3.25-1.17,9.17-0.97,9.34,3.649c0.13,13.631,0.029,27.261,0.04,40.891
		c-0.25,4.449,0.55,9.149,3.521,12.649c7.299,9.08,23.009,9.18,30.1-0.22c3.56-4.33,3.15-10.17,3.08-15.42
		c0.06-12.59-0.15-25.189,0.09-37.78c0.23-4.609,5.73-4.859,9.14-3.92c2.25,0.82,2.89,3.511,2.81,5.67
		c-0.01,13.69-0.029,27.391,0,41.08c0.171,5.89-1.21,11.931-4.789,16.7c-5.57,7.74-15.49,11.04-24.721,10.87
		c-8.45,0.199-17.479-1.88-23.689-7.939c-4.6-4.221-7.36-10.361-7.33-16.611c0-15.05-0.01-30.1,0-45.139
		C938.79,469.09,939.77,467.28,941.41,466.45z"/>
	<path fill="#232323" d="M1028.03,470.931c-0.54-6.19,9.87-6.95,11.63-1.7c8.279,17.08,16.6,34.149,24.8,51.27
		c8.81-17.08,16.399-34.79,24.92-52.02c2.38-4.461,11.88-3.351,11.3,2.55c0.01,21.31,0.061,42.62-0.029,63.93
		c0.069,4.57-5.561,5.5-8.971,4.3c-2.57-0.85-3.16-3.87-3.07-6.229c-0.01-12.44,0.03-24.88,0-37.32
		c-6.799,12.721-12.479,26.021-19.119,38.82c-1.351,2.8-4.75,2.05-7.26,2.05c-1.601,0.14-2.721-1.12-3.36-2.391
		c-6.5-12.459-12.14-25.37-18.86-37.689c-0.5,12.811-0.02,25.65-0.229,38.48c0.189,6.439-11.86,6.43-11.74,0.05
		C1027.96,513.67,1027.99,492.29,1028.03,470.931z"/>
	<path fill="#232323" d="M512.35,467.439c3.25-0.92,7.05-0.699,9.79,1.45c2.15,1.641,3.32,4.16,4.35,6.591
		c6.83,17.159,13.939,34.209,20.84,51.33c0.96,2.629,2.25,5.689,0.81,8.399c-1.76,3.68-6.88,4.979-10.25,2.8
		c-1.98-1.96-2.58-4.82-3.64-7.29c-6.22-16.15-11.88-32.52-18.35-48.569c-7.05,17.729-13.1,35.85-20.16,53.58
		c-1.59,5-9.32,3.989-11.37-0.17c-1.83-2.66-0.33-5.83,0.59-8.511c6.92-17.41,13.81-34.84,20.74-52.25
		C506.95,471.689,508.99,468.51,512.35,467.439z"/>
	<path fill="#232323" d="M760.48,467.4c3.21-0.86,6.96-0.641,9.66,1.489c2.37,1.82,3.55,4.66,4.66,7.341
		c6.71,16.92,13.73,33.709,20.53,50.58c0.96,2.629,2.25,5.689,0.81,8.39c-1.75,3.68-6.88,4.989-10.25,2.81
		c-1.98-1.96-2.58-4.82-3.64-7.29c-6.22-16.15-11.88-32.52-18.35-48.569c-6.12,15.33-11.41,30.979-17.37,46.38
		c-1.37,3.21-2.09,6.83-4.31,9.6c-3.27,1.9-8.03,0.84-9.86-2.58c-1.69-2.39-0.52-5.31,0.33-7.77c6.98-17.67,13.99-35.33,21.01-52.98
		C754.96,471.65,757.05,468.431,760.48,467.4z"/>
</g>
</svg>
