<?xml version="1.0" encoding="utf-8"?>
<!-- Generator: Adobe Illustrator 16.0.0, SVG Export Plug-In . SVG Version: 6.00 Build 0)  -->
<!DOCTYPE svg PUBLIC "-//W3C//DTD SVG 1.1//EN" "http://www.w3.org/Graphics/SVG/1.1/DTD/svg11.dtd">
<svg version="1.1" id="Laag_1" xmlns="http://www.w3.org/2000/svg" xmlns:xlink="http://www.w3.org/1999/xlink" x="0px" y="0px"
	 width="256px" height="256px" viewBox="0 0 256 256" enable-background="new 0 0 256 256" xml:space="preserve">
<g>
	<linearGradient id="SVGID_1_" gradientUnits="userSpaceOnUse" x1="34.542" y1="128.0049" x2="220.5986" y2="128.0049">
		<stop  offset="0" style="stop-color:#ECA704"/>
		<stop  offset="0.1854" style="stop-color:#E87F09"/>
		<stop  offset="0.361" style="stop-color:#D63255"/>
		<stop  offset="0.5268" style="stop-color:#4A2A7D"/>
		<stop  offset="0.6927" style="stop-color:#343F91"/>
		<stop  offset="0.8439" style="stop-color:#0A7FB5"/>
		<stop  offset="1" style="stop-color:#019C7A"/>
	</linearGradient>
	<path fill="url(#SVGID_1_)" d="M108.29,31.25c7.87-6.83,19.48-7.48,29.11-4.63c9.789,3.28,15.66,12.6,19.279,21.74
		c19.801,49.65,40.4,98.98,60.33,148.58c2.74,7.34,5.74,16.16,1.4,23.49c-4.5,8.221-14.73,12.41-23.721,9.76
		c-5.17-1.459-9.1-5.68-11.39-10.399c-6.06-12.479-10.41-25.69-15.47-38.59c-7.03-17.66-12.93-35.729-19.58-53.53
		c-7.1-19.44-14.42-38.8-21.34-58.31c-0.71,1.14-1.43,2.28-1.94,3.51c-15.45,42.53-31.03,85.021-46.71,127.46
		c-3.14,7.84-5.34,16.12-9.47,23.52c-2.76,5.09-8.76,7.261-14.3,7.07c-8.08,0.2-15.72-5.189-18.84-12.529
		c-2.4-6.23-0.48-13.031,1.78-18.99c19.7-49.9,39.62-99.72,59.31-149.621C99.57,43.08,102.57,36.04,108.29,31.25z"/>
</g>
</svg>
