/* XPM */
static const char * const AudacityLogoAlpha_xpm[] = {
"48 48 206 2",
"  	c None",
". 	c #E6E6E6",
"+ 	c #E5E5E5",
"@ 	c #E4E4E4",
"# 	c #E3E3E3",
"$ 	c #E1E1E1",
"% 	c #DDDDDD",
"& 	c #DCDCDC",
"* 	c #E0E0E0",
"= 	c #DFDFDF",
"- 	c #DEDEDE",
"; 	c #D8D4D8",
"> 	c #C8C1CE",
", 	c #C5C3D0",
"' 	c #D6D6DA",
") 	c #D3BCC5",
"! 	c #955385",
"~ 	c #592C7A",
"{ 	c #432E82",
"] 	c #645E9B",
"^ 	c #C3C3CF",
"/ 	c #DBD4D5",
"( 	c #BB5079",
"_ 	c #842A6F",
": 	c #582A79",
"< 	c #402B81",
"[ 	c #3A2F86",
"} 	c #63619D",
"| 	c #D7D7D9",
"1 	c #D9A9B0",
"2 	c #B52C64",
"3 	c #3A378C",
"4 	c #B2B2C4",
"5 	c #DCDBDB",
"6 	c #D9697A",
"7 	c #B52B63",
"8 	c #38358B",
"9 	c #7579A7",
"0 	c #DEC3C4",
"a 	c #D83958",
"b 	c #78628B",
"c 	c #685F92",
"d 	c #3D4694",
"e 	c #C7C9D1",
"f 	c #E29494",
"g 	c #D73454",
"h 	c #ADA5B1",
"i 	c #A5A3B5",
"j 	c #353F91",
"k 	c #959DBB",
"l 	c #DDD5D4",
"m 	c #E55853",
"n 	c #D73353",
"o 	c #84306E",
"p 	c #D1CFD1",
"q 	c #CECED2",
"r 	c #3D3487",
"s 	c #343E90",
"t 	c #4963A4",
"u 	c #D5D6D9",
"v 	c #E2B3AC",
"w 	c #E44741",
"x 	c #A07991",
"y 	c #7B789F",
"z 	c #2C4F9C",
"A 	c #AEB7CB",
"B 	c #E7836A",
"C 	c #E44540",
"D 	c #C1B2BA",
"E 	c #B2B1BF",
"F 	c #2A4E9C",
"G 	c #6988B7",
"H 	c #DBDCDC",
"I 	c #DFCAC3",
"J 	c #E8612F",
"K 	c #B4416A",
"L 	c #D8D6D7",
"M 	c #D5D5D7",
"N 	c #49478F",
"O 	c #2567AC",
"P 	c #C3CBD5",
"Q 	c #DBDBDB",
"R 	c #E4A78E",
"S 	c #E85D28",
"T 	c #C38D9A",
"U 	c #8D8DAC",
"V 	c #1D62AA",
"W 	c #8CA8C7",
"X 	c #D9D9D9",
"Y 	c #DDD7D4",
"Z 	c #E8813A",
"` 	c #E85C28",
" .	c #D63453",
"..	c #D1BFC3",
"+.	c #BEBEC9",
"@.	c #353F90",
"#.	c #3581B9",
"$.	c #D3D7DA",
"%.	c #D7D7D7",
"&.	c #E2C0AC",
"*.	c #E77515",
"=.	c #D35B6C",
"-.	c #DBDADB",
";.	c #DADADB",
">.	c #5A5F9A",
",.	c #1276B4",
"'.	c #A8BECE",
").	c #D5D5D5",
"!.	c #DCDCDB",
"~.	c #E7A068",
"{.	c #E77313",
"].	c #DBA0A5",
"^.	c #9DA0B9",
"/.	c #1075B4",
"(.	c #5E9BBD",
"_.	c #DBDBDC",
":.	c #D3D3D3",
"<.	c #E0D1C5",
"[.	c #EA8A11",
"}.	c #E44742",
"|.	c #DCCBCC",
"1.	c #CACBD2",
"2.	c #0F87B3",
"3.	c #C0CDD2",
"4.	c #E6B991",
"5.	c #E98606",
"6.	c #E37B77",
"7.	c #6D7CAC",
"8.	c #0884B1",
"9.	c #86B2BD",
"0.	c #DADADA",
"a.	c #DDDAD6",
"b.	c #EB9F3B",
"c.	c #DFB1AE",
"d.	c #AAB0C4",
"e.	c #1C62AA",
"f.	c #2997A6",
"g.	c #D1D7D7",
"h.	c #D4D4D4",
"i.	c #E3CAB0",
"j.	c #EB9708",
"k.	c #E56338",
"l.	c #DBD4D3",
"m.	c #D2D3D7",
"n.	c #2E67AB",
"o.	c #0590A0",
"p.	c #A4C2C0",
"q.	c #D4D5D5",
"r.	c #CECECE",
"s.	c #E9B46D",
"t.	c #EB9504",
"u.	c #DF9483",
"v.	c #7F95BA",
"w.	c #038FA0",
"x.	c #58A79E",
"y.	c #DADBDB",
"z.	c #DED5CC",
"A.	c #ECA417",
"B.	c #DBBFB8",
"C.	c #B6BECC",
"D.	c #08998B",
"E.	c #C5D1CD",
"F.	c #D2D2D2",
"G.	c #DACBBC",
"H.	c #EAA004",
"I.	c #E07E44",
"J.	c #DBD9D8",
"K.	c #D8D9DA",
"L.	c #407FB3",
"M.	c #029789",
"N.	c #B3C4BE",
"O.	c #C4C5C5",
"P.	c #D8D6D4",
"Q.	c #CF964A",
"R.	c #EA9504",
"S.	c #E88506",
"T.	c #D0A593",
"U.	c #92A4B9",
"V.	c #0783B0",
"W.	c #038F9F",
"X.	c #408E85",
"Y.	c #D0D3D2",
"Z.	c #D2D0CF",
"`.	c #C0AB9D",
" +	c #C0ABA1",
".+	c #D6D5D4",
"++	c #D6D6D7",
"@+	c #A3ADB4",
"#+	c #9BA9AD",
"$+	c #CCCECE",
"%+	c #BEBEBE",
"&+	c #CACACA",
"*+	c #B4B5B5",
"=+	c #D8D8D8",
"-+	c #B2B3B3",
";+	c #D6D6D6",
">+	c #D0D1D1",
",+	c #C3C4C4",
"'+	c #AEAFAF",
")+	c #CDCDCD",
"!+	c #B1B1B1",
"~+	c #C9C9C9",
"{+	c #BABABA",
"]+	c #C8C8C8",
"^+	c #ADADAD",
"/+	c #B8B9B9",
"                                                                                                ",
"                                          . + @ @ + .                                           ",
"                                  # $ % & & & & & & & & % $ #                                   ",
"                            + * & & & & & & & & & & & & & & & & * +                             ",
"                        + = & & & & & & & & & & & & & & & & & & & & = +                         ",
"                      $ & & & & & & & & & & & & & & & & & & & & & & & & $                       ",
"                    - & & & & & & & & & & & & & & & & & & & & & & & & & & -                     ",
"                @ % & & & & & & & & & & & & & & & & & & & & & & & & & & & & % @                 ",
"              # % & & & & & & & & & & & & & & & & & & & & & & & & & & & & & & % #               ",
"              % & & & & & & & & & & & & & & & & & & & & & & & & & & & & & & & & %               ",
"            - & & & & & & & & & & & & & & & & & & & & & & & & & & & & & & & & & & -             ",
"          = & & & & & & & & & & & & & & & & ; > , ' & & & & & & & & & & & & & & & & =           ",
"        $ & & & & & & & & & & & & & & & & ) ! ~ { ] ^ & & & & & & & & & & & & & & & & $         ",
"        - & & & & & & & & & & & & & & & / ( _ : < [ } | & & & & & & & & & & & & & & & -         ",
"      = & & & & & & & & & & & & & & & & 1 2 _ : < [ 3 4 & & & & & & & & & & & & & & & & *       ",
"      - & & & & & & & & & & & & & & & 5 6 7 _ : < [ 8 9 & & & & & & & & & & & & & & & & -       ",
"      & & & & & & & & & & & & & & & & 0 a 7 _ b c [ 8 d e & & & & & & & & & & & & & & & &       ",
"    - & & & & & & & & & & & & & & & & f g 7 _ h i [ 8 j k & & & & & & & & & & & & & & & & -     ",
"    % & & & & & & & & & & & & & & & l m n 7 o p q r 8 s t u & & & & & & & & & & & & & & & %     ",
"    & & & & & & & & & & & & & & & & v w n 7 x & & y 8 s z A & & & & & & & & & & & & & & & &     ",
"    & & & & & & & & & & & & & & & 5 B C n 7 D & & E 8 s F G H & & & & & & & & & & & & & & &     ",
"  & & & & & & & & & & & & & & & & I J C n K L & & M N s F O P & & & & & & & & & & & & & & & &   ",
"  Q & & & & & & & & & & & & & & & R S C n T & & & & U s F V W & & & & & & & & & & & & & & & Q   ",
"  X & & & & & & & & & & & & & & Y Z ` C  ...& & & & +.@.F V #.$.& & & & & & & & & & & & & & X   ",
"  %.& & & & & & & & & & & & & & &.*.` C =.-.& & & & ;.>.F V ,.'.& & & & & & & & & & & & & & %.  ",
"  ).& & & & & & & & & & & & & !.~.{.` C ].& & & & & & ^.F V /.(._.& & & & & & & & & & & & & ).  ",
"  :.& & & & & & & & & & & & & <.[.{.` }.|.& & & & & & 1.z V /.2.3.& & & & & & & & & & & & & :.  ",
"    & & & & & & & & & & & & & 4.5.{.` 6.& & & & & & & H 7.V /.8.9.& & & & & & & & & & & & &     ",
"    0.& & & & & & & & & & & a.b.5.{.` c.& & & & & & & & d.e./.8.f.g.& & & & & & & & & & & 0.    ",
"    h.& & & & & & & & & & & i.j.5.{.k.l.& & & & & & & & m.n./.8.o.p.& & & & & & & & & & & q.    ",
"    r.& & & & & & & & & & & s.t.5.{.u.& & & & & & & & & & v./.8.w.x.y.& & & & & & & & & & r.    ",
"      Q & & & & & & & & & z.A.t.5.{.B.& & & & & & & & & & C./.8.w.D.E.& & & & & & & & & Q       ",
"      F.& & & & & & & & & G.H.t.5.I.J.& & & & & & & & & & K.L.8.w.M.N.& & & & & & & & & F.      ",
"      O.& & & & & & & & & P.Q.R.S.T.& & & & & & & & & & & & U.V.W.X.Y.& & & & & & & & & O.      ",
"        F.& & & & & & & & & Z.`. +.+& & & & & & & & & & & & ++@+#+$+& & & & & & & & & F.        ",
"        %+Q & & & & & & & & & & & & & & & & & & & & & & & & & & & & & & & & & & & & Q %+        ",
"          &+& & & & & & & & & & & & & & & & & & & & & & & & & & & & & & & & & & & & &+          ",
"            F.& & & & & & & & & & & & & & & & & & & & & & & & & & & & & & & & & & F.            ",
"              %.& & & & & & & & & & & & & & & & & & & & & & & & & & & & & & & & %.              ",
"              *+=+& & & & & & & & & & & & & & & & & & & & & & & & & & & & & & =+*+              ",
"                -+;+& & & & & & & & & & & & & & & & & & & & & & & & & & & & ;+-+                ",
"                    >+& & & & & & & & & & & & & & & & & & & & & & & & & & >+                    ",
"                      ,+Q & & & & & & & & & & & & & & & & & & & & & & Q ,+                      ",
"                        '+)+& & & & & & & & & & & & & & & & & & & & )+'+                        ",
"                            !+~+0.& & & & & & & & & & & & & & 0.~+!+                            ",
"                                  {+]+).Q & & & & & & Q ).]+{+                                  ",
"                                          ^+*+/+/+*+^+                                          ",
"                                                                                                "};
