/* XPM */ 
static const char * const audacity16_xpm[] = {
"16 16 86 1",
" 	c None",
"!	c black",
"#	c #0D333B",
"$	c #0D363E",
"%	c #0E3942",
"&	c #0F3C45",
"'	c #103F49",
"(	c #11434D",
")	c #114651",
"*	c #0B2B32",
"+	c #0B2D34",
",	c #0C2F36",
"-	c #0C3139",
".	c #0B2E36",
"0	c #0E3A43",
"1	c #11434E",
"2	c #0A262D",
"3	c #0A272D",
"4	c #0A282E",
"5	c #082227",
"6	c #051316",
"7	c #0E3840",
"8	c #11444F",
"9	c #082126",
":	c #041215",
";	c #10424C",
"<	c #081F24",
"=	c #071D22",
">	c #071C21",
"?	c #030B0D",
"@	c #0F3B45",
"A	c #0D343D",
"B	c #081E23",
"C	c #071B1F",
"D	c #06181C",
"E	c #0E3841",
"F	c #0F3D47",
"G	c #071E22",
"H	c #071A1F",
"I	c #06161A",
"J	c #092122",
"K	c #43E5DC",
"L	c #43E7E0",
"M	c #0C3038",
"N	c #0D353E",
"O	c #06171B",
"P	c #071C20",
"Q	c #051315",
"R	c #040F11",
"S	c #030C0E",
"T	c #35988E",
"U	c #329991",
"V	c #082225",
"W	c #0A2A30",
"X	c #0D343C",
"Y	c #061A1E",
"Z	c #051518",
"[	c #041012",
"]	c #030B0C",
"^	c #020708",
"_	c #152722",
"`	c #051011",
"a	c #041114",
"b	c #09242A",
"c	c #09262C",
"d	c #051417",
"e	c #030E10",
"f	c #02080A",
"g	c #010304",
"h	c #020A0B",
"i	c #051519",
"j	c #071B20",
"k	c #092328",
"l	c #040E11",
"m	c #030C0D",
"n	c #021011",
"o	c #03191A",
"p	c #030A0C",
"q	c #051619",
"r	c #136162",
"s	c #148284",
"t	c #092426",
"u	c #030D10",
"v	c #071D21",
"w	c #092228",
"x	c #06171A",
"                ",
"       #$%&'()  ",
"     *+,--+.01) ",
"    23456    78 ",
"   559:       ; ",
"  <=>?       @'A",
" BCD6        EF-",
"GHI6JKL     MNEO",
"POQRSTUVD=5W.XY ",
" Z[]^_`aIP5b+c  ",
" defg]h[ij9k<6  ",
" almnop[qj9c    ",
"   rstu:Ovwb    ",
"      aiY<bx    ",
"       dP=6     ",
"                "};